<?xml version="1.0" encoding="UTF-8" standalone="no"?><!DOCTYPE svg PUBLIC "-//W3C//DTD SVG 1.1//EN" "http://www.w3.org/Graphics/SVG/1.1/DTD/svg11.dtd"><svg width="100%" height="100%" viewBox="0 0 1229 275" version="1.1" xmlns="http://www.w3.org/2000/svg" xmlns:xlink="http://www.w3.org/1999/xlink" xml:space="preserve" xmlns:serif="http://www.serif.com/" style="fill-rule:evenodd;clip-rule:evenodd;stroke-linejoin:round;stroke-miterlimit:2;"><g><path d="M976.788,69.228c-14.671,-2.091 -26.033,-14.787 -26.033,-30.12c-0,-16.667 13.566,-30.338 30.337,-30.338c16.221,0 29.463,12.688 30.338,28.688c-14.117,7.387 -26.138,18.304 -34.642,31.77" style="fill:#009fe3;"/><path d="M957.142,165.882c-8.05,16.446 -25.033,27.8 -44.562,27.8c-27.475,-0 -49.763,-22.284 -49.763,-49.65c0,-0.546 0.113,-1.1 0.113,-1.654c15.446,13.787 52.846,21.729 94.212,23.504m5.088,-21.85c-0,5.296 -0.888,10.375 -2.321,15.121c-46.008,-1.442 -86.717,-10.15 -95.875,-25.709c0.217,-1.329 0.554,-2.654 0.988,-3.866c6.183,-20.409 25.154,-35.196 47.558,-35.196c10.367,-0 19.971,3.2 27.912,8.616c13.125,8.93 21.738,23.934 21.738,41.034" style="fill:#e30613;"/><path d="M1155.52,103.87c-15.992,-8.275 -26.808,-24.933 -26.808,-44.129c-0,-27.371 22.17,-49.65 49.65,-49.65c13.566,-0 25.925,5.517 34.866,14.346c-0.225,17.537 -10.816,36.291 -28.029,54.058c-8.496,8.829 -18.529,17.325 -29.679,25.375m72.483,-44.129c0,27.462 -22.279,49.646 -49.641,49.646c-5.405,-0 -10.48,-0.771 -15.334,-2.425c10.142,-7.504 19.3,-15.446 27.25,-23.613c15.996,-16.546 26.692,-34.2 29.346,-51.191c5.296,7.829 8.379,17.32 8.379,27.583" style="fill:#3baa35;"/><path d="M979.441,159.257c-6.404,-12.021 -10.159,-25.812 -10.159,-40.379c0,-9.708 1.655,-18.979 4.634,-27.696c11.483,-33.754 43.471,-58.142 81.208,-58.142c16.888,0 32.65,4.855 45.9,13.346c22.613,14.346 38.058,38.954 39.713,67.304c-13.567,8.5 -28.355,16.221 -43.571,22.734c-10.375,4.296 -20.971,8.162 -31.559,11.358c-9.937,2.875 -20.745,5.183 -32.212,7.063c-11.483,1.766 -23.617,2.979 -35.863,3.758c-6.07,0.329 -12.133,0.55 -18.091,0.654m161.408,-37.404c-1.537,46.012 -39.387,82.754 -85.725,82.754c-29.9,0 -56.267,-15.229 -71.604,-38.504c4.742,-0.117 9.6,-0.342 14.346,-0.554c12.466,-0.767 24.821,-1.988 36.629,-3.859c11.8,-1.879 22.95,-4.304 32.983,-7.283l0.113,0c10.816,-3.208 21.625,-7.071 32.221,-11.587c14.225,-6.063 28.133,-13.134 41.037,-20.967" style="fill:#f39200;"/><path d="M106.137,59.798l-31.666,0c-14.459,0 -26.479,4.525 -36.3,13.575c-9.817,9.154 -14.779,20.629 -14.779,34.759c-0,14.225 5.071,26.033 15.121,35.408c10.024,9.383 22.166,14.125 36.62,14.125l31.004,-0l0,-97.867Zm-98.304,80.209c-5.183,-10.15 -7.833,-20.842 -7.833,-31.875c0,-20.08 7.171,-36.963 21.512,-50.425c14.23,-13.575 31.551,-20.417 51.746,-20.417l54.942,-0l-0,187.571l-22.063,-0l0,-46.788l-33.983,0c-13.792,0 -26.367,-3.416 -37.729,-10.037c-11.358,-6.621 -20.304,-15.996 -26.592,-28.029" style="fill:#1d1d1b;"/><path d="M144.533,118.278l-0,-80.762l22.508,-0l0,79.55c0,11.696 3.746,21.621 11.25,29.679c7.5,8.054 16.992,12.125 28.579,12.125c11.696,0 21.288,-3.962 28.905,-12.012c7.612,-8.063 11.362,-17.871 11.362,-29.571l0,-79.771l22.95,-0l0,140.558l-22.95,0l0,-14.779c-7.504,5.846 -14.012,9.825 -19.525,12.133c-6.842,2.98 -14.346,4.413 -22.508,4.413c-16.992,-0 -31.338,-5.958 -43.025,-18.092c-11.704,-12.029 -17.546,-26.587 -17.546,-43.471" style="fill:#1d1d1b;"/><path d="M392.773,178.074l-0,-120.587l-31.217,-0c-14.35,-0 -26.596,4.858 -36.637,14.454c-10.034,9.596 -15,21.512 -15,35.75c-0,14.225 4.85,26.137 14.779,35.633c9.929,9.492 21.958,14.342 36.192,14.342c8.495,-0 16.437,-2.092 23.608,-6.071l-0,22.617c-9.483,3.204 -17.654,4.75 -24.708,4.75c-20.305,-0 -37.517,-6.846 -51.855,-20.529c-14.35,-13.788 -21.516,-30.667 -21.516,-50.742c-0,-11.371 2.641,-22.292 7.941,-32.554c6.292,-12.025 15.121,-21.288 26.475,-27.913c11.367,-6.625 23.946,-9.937 37.734,-9.937l56.046,-0l-0,140.787l-21.842,0Z" style="fill:#1d1d1b;"/><path d="M427.53,0l22.284,0l-0,37.287l48.771,0l-0,21.08l-48.771,-0l-0,69.291c-0,2.1 0.666,5.071 1.879,9.159c1.325,3.962 2.537,6.841 3.75,8.487c5.85,8.167 16.221,12.358 31.004,12.358l16.654,0l0,20.413c-0.879,0 -5.733,0 -14.341,0.221c-6.505,0.112 -11.692,0.112 -15.771,-0c-5.746,-0.438 -10.596,-1.321 -14.675,-2.538c-9.046,-2.533 -16.55,-7.725 -22.184,-15.446c-5.729,-7.833 -8.6,-16.55 -8.6,-26.149l0,-134.163Z" style="fill:#1d1d1b;"/><path d="M507.625,0l22.291,0l0,37.287l48.767,0l-0,21.08l-48.767,-0l0,69.291c0,2.1 0.55,5.071 1.875,9.159c1.213,3.962 2.542,6.841 3.634,8.487c5.858,8.167 16.225,12.358 31.116,12.358l16.554,0l0,20.413c-0.887,0 -5.629,0 -14.345,0.221c-6.4,0.112 -11.696,0.112 -15.775,-0c-5.63,-0.438 -10.48,-1.321 -14.567,-2.538c-9.154,-2.533 -16.55,-7.725 -22.279,-15.446c-5.634,-7.833 -8.504,-16.55 -8.504,-26.149l-0,-134.163Z" style="fill:#1d1d1b;"/><path d="M667.16,56.38c-14.891,0 -27.687,4.963 -38.283,15.009c-10.704,10.041 -15.987,22.287 -15.987,36.629c0.104,14.337 5.508,26.371 16.216,36.179c10.588,9.717 23.275,14.575 38.054,14.575c14.788,0 27.588,-4.858 38.288,-14.575c10.704,-9.808 16.221,-21.842 16.333,-36.179c0.109,-14.342 -5.183,-26.588 -16.112,-36.629c-10.809,-10.046 -23.721,-15.009 -38.509,-15.009m0,123.688c-20.737,-0 -38.616,-6.95 -53.62,-20.863c-15,-13.9 -22.388,-30.991 -22.388,-51.295c0,-20.192 7.388,-37.296 22.388,-51.417c15.004,-14.117 32.883,-21.192 53.62,-21.192c20.746,0 38.842,7.075 53.955,21.192c15.112,14.121 22.729,31.225 22.729,51.417c-0,20.304 -7.617,37.395 -22.729,51.295c-15.113,13.913 -33.209,20.863 -53.955,20.863" style="fill:#1d1d1b;"/><path d="M843.796,68.628c-7.716,-8.163 -17.312,-12.246 -29.004,-12.246c-11.592,0 -21.079,3.971 -28.687,12.025c-7.505,7.946 -11.371,17.871 -11.371,29.679l-0,79.988l-23.167,-0l0,-140.784l23.167,0l-0,14.68c7.508,-5.85 14.016,-9.93 19.533,-12.134c6.838,-2.987 14.342,-4.533 22.508,-4.533c19.084,-0 34.646,7.512 46.78,22.508l-19.759,10.817Z" style="fill:#1d1d1b;"/><path d="M361.222,273.957l-0,-45.238l-11.696,0c-5.404,0 -10.042,1.879 -13.792,5.409c-3.754,3.633 -5.625,8.058 -5.625,13.454c0,5.296 1.871,9.821 5.508,13.354c3.763,3.646 8.28,5.412 13.576,5.412c3.2,0 6.179,-0.775 8.82,-2.32l0,8.495c-3.529,1.213 -6.612,1.767 -9.258,1.767c-7.504,0 -14.013,-2.537 -19.417,-7.608c-5.3,-5.192 -8.058,-11.596 -8.058,-19.1c0,-4.288 0.992,-8.384 2.979,-12.242c2.321,-4.525 5.625,-7.942 9.929,-10.479c4.305,-2.433 9.05,-3.646 14.234,-3.646l20.962,0l0,52.742l-8.162,-0Z" style="fill:#1d1d1b;fill-rule:nonzero;"/><path d="M425.659,236.001c-4.746,-5.184 -10.042,-7.725 -15.892,-7.725c-5.292,-0 -9.712,1.875 -13.462,5.737c-3.867,3.867 -5.738,8.384 -5.738,13.684c0,5.183 1.871,9.708 5.738,13.458c3.75,3.75 8.17,5.633 13.462,5.633c3.971,0 7.617,-1.108 10.813,-3.2c3.2,-2.212 5.512,-5.087 6.837,-8.725l5.738,5.521c-5.071,9.6 -12.575,14.346 -22.292,14.346c-8.046,-0 -14.663,-2.433 -20.075,-7.396c-5.625,-5.071 -8.496,-11.687 -8.496,-19.637c0,-7.725 2.654,-14.234 8.054,-19.421c5.3,-5.288 11.917,-7.834 19.754,-7.834c9.592,0 16.992,3.646 22.28,11.034l-6.721,4.525Z" style="fill:#1d1d1b;fill-rule:nonzero;"/><path d="M481.372,273.957l-0,-45.238l-11.809,0c-5.412,0 -9.929,1.879 -13.675,5.409c-3.862,3.633 -5.741,8.058 -5.741,13.454c-0,5.296 1.879,9.821 5.629,13.354c3.637,3.646 8.162,5.412 13.566,5.412c3.2,0 6.184,-0.775 8.83,-2.32l-0,8.495c-3.53,1.213 -6.621,1.767 -9.267,1.767c-7.613,0 -14.121,-2.537 -19.417,-7.608c-5.412,-5.192 -8.058,-11.596 -8.058,-19.1c0,-4.288 0.992,-8.384 2.871,-12.242c2.429,-4.525 5.737,-7.942 10.037,-10.479c4.192,-2.433 8.934,-3.646 14.125,-3.646l21.071,0l0,52.742l-8.162,-0Z" style="fill:#1d1d1b;fill-rule:nonzero;"/><path d="M543.926,228.831l-11.696,0c-5.408,0 -9.933,1.767 -13.791,5.404c-3.75,3.525 -5.625,8.055 -5.625,13.346c-0,5.296 1.875,9.604 5.516,12.921c3.755,3.3 8.271,4.958 13.684,4.958l11.912,0l0,-36.629Zm-36.962,6.509c2.425,-4.521 5.737,-7.942 10.041,-10.48c4.192,-2.433 8.938,-3.645 14.121,-3.645l12.8,-0l0,-13.9l8.163,-0l-0,66.641l-20.521,0c-7.613,0 -14.121,-2.433 -19.525,-7.504c-5.296,-5.075 -7.946,-11.367 -7.946,-18.871c0,-4.287 0.988,-8.383 2.867,-12.241" style="fill:#1d1d1b;fill-rule:nonzero;"/><path d="M613.327,243.618c-1.545,-10.263 -7.95,-15.342 -18.979,-15.342c-5.629,0 -10.366,1.875 -14.458,5.625c-3.971,3.75 -5.958,8.392 -5.846,13.796c0,5.296 1.875,9.821 5.625,13.458c3.754,3.75 8.275,5.634 13.575,5.634c4.408,-0 8.713,-0.888 12.792,-2.55c4.754,-2.092 7.729,-4.734 9.05,-8.163l5.629,5.413c-2.317,4.412 -6.071,7.725 -11.033,10.033c-4.63,2.1 -9.813,3.208 -15.446,3.208c-7.838,0 -14.567,-2.541 -20.192,-7.725c-5.517,-5.295 -8.379,-11.7 -8.379,-19.308c-0,-7.621 2.862,-14.008 8.496,-19.304c5.621,-5.3 12.35,-7.95 20.075,-7.95c8.496,-0 15.112,1.983 19.858,5.742c5.738,4.412 8.496,11.362 8.496,20.633c0,1.212 0,2.317 -0.108,3.529l-40.38,0l0,-6.729l31.225,-0Z" style="fill:#1d1d1b;fill-rule:nonzero;"/><path d="M682.727,273.957l-8.284,-0l0,-30.013c0,-4.412 -1.433,-8.058 -4.295,-11.141c-2.759,-2.98 -6.405,-4.525 -10.709,-4.525c-4.412,-0 -8.05,1.545 -10.808,4.525c-2.875,2.979 -4.296,6.729 -4.296,11.141l0,30.013l-8.621,-0l0,-52.742l8.621,0l0,5.413c2.862,-2.092 5.288,-3.638 7.387,-4.525c2.538,-1.109 5.292,-1.663 8.384,-1.663c3.971,0 7.616,0.883 10.921,2.767c3.312,1.979 5.958,4.412 8.05,7.608c2.316,-3.092 5.191,-5.629 8.829,-7.5c3.529,-1.992 7.167,-2.875 10.921,-2.875c6.291,0 11.691,2.213 16.112,6.738c4.304,4.516 6.504,10.037 6.504,16.32l0,30.459l-8.379,-0l0,-30.013c0,-4.412 -1.437,-8.058 -4.3,-11.141c-2.762,-2.98 -6.292,-4.525 -10.712,-4.525c-4.296,-0 -7.942,1.433 -10.921,4.412c-2.863,3.092 -4.404,6.729 -4.404,11.033l-0,30.234Z" style="fill:#1d1d1b;fill-rule:nonzero;"/><path d="M735.683,211.619c-0,-1.108 0.325,-2.091 1.204,-2.862c0.783,-0.888 1.775,-1.221 2.875,-1.221c1.212,-0 2.204,0.333 2.975,1.221c0.887,0.771 1.221,1.754 1.221,2.862c-0,1.213 -0.334,2.204 -1.221,2.979c-0.771,0.88 -1.763,1.213 -2.975,1.213c-1.1,-0 -2.092,-0.333 -2.875,-1.213c-0.879,-0.775 -1.204,-1.766 -1.204,-2.979m8.275,62.338l-8.609,-0l0,-53.517l8.609,0l-0,53.517Z" style="fill:#1d1d1b;fill-rule:nonzero;"/><path d="M798.237,273.957l0,-45.238l-11.695,0c-5.409,0 -10.038,1.879 -13.792,5.409c-3.75,3.633 -5.629,8.058 -5.629,13.454c-0,5.296 1.879,9.821 5.521,13.354c3.746,3.646 8.271,5.412 13.571,5.412c3.195,0 6.183,-0.775 8.933,-2.32l-0,8.495c-3.638,1.213 -6.729,1.767 -9.267,1.767c-7.612,0 -14.129,-2.537 -19.525,-7.608c-5.296,-5.192 -8.054,-11.596 -8.054,-19.1c0,-4.288 0.992,-8.384 2.975,-12.242c2.321,-4.525 5.738,-7.942 9.929,-10.479c4.304,-2.433 9.05,-3.646 14.234,-3.646l20.962,0l0,52.742l-8.162,-0Z" style="fill:#1d1d1b;fill-rule:nonzero;"/></g></svg>