<?xml version="1.0" encoding="UTF-8" standalone="no"?><!DOCTYPE svg PUBLIC "-//W3C//DTD SVG 1.1//EN" "http://www.w3.org/Graphics/SVG/1.1/DTD/svg11.dtd"><svg width="100%" height="100%" viewBox="0 0 366 196" version="1.1" xmlns="http://www.w3.org/2000/svg" xmlns:xlink="http://www.w3.org/1999/xlink" xml:space="preserve" xmlns:serif="http://www.serif.com/" style="fill-rule:evenodd;clip-rule:evenodd;stroke-linejoin:round;stroke-miterlimit:2;"><path d="M113.975,60.458c-14.671,-2.091 -26.034,-14.787 -26.034,-30.12c0,-16.667 13.567,-30.338 30.338,-30.338c16.216,0 29.458,12.688 30.337,28.688c-14.121,7.387 -26.137,18.304 -34.641,31.77" style="fill:#009fe3;"/><path d="M94.329,157.112c-8.05,16.445 -25.033,27.8 -44.562,27.8c-27.475,-0 -49.767,-22.284 -49.767,-49.65c-0,-0.546 0.117,-1.1 0.117,-1.655c15.445,13.788 52.845,21.734 94.212,23.505m5.083,-21.85c0,5.3 -0.883,10.375 -2.316,15.12c-46.013,-1.437 -86.717,-10.15 -95.875,-25.708c0.212,-1.325 0.554,-2.65 0.987,-3.862c6.184,-20.413 25.154,-35.2 47.559,-35.2c10.366,-0 19.97,3.2 27.912,8.616c13.125,8.929 21.733,23.934 21.733,41.034" style="fill:#e30613;"/><path d="M292.708,95.102c-15.992,-8.275 -26.808,-24.933 -26.808,-44.133c-0,-27.367 22.17,-49.65 49.65,-49.65c13.566,-0 25.929,5.516 34.866,14.35c-0.225,17.537 -10.816,36.291 -28.029,54.058c-8.496,8.829 -18.529,17.325 -29.679,25.375m72.483,-44.133c0,27.466 -22.279,49.65 -49.641,49.65c-5.405,-0 -10.48,-0.771 -15.33,-2.425c10.138,-7.504 19.296,-15.446 27.246,-23.617c16,-16.542 26.692,-34.196 29.346,-51.187c5.296,7.829 8.379,17.316 8.379,27.579" style="fill:#3baa35;"/><path d="M116.625,150.489c-6.404,-12.021 -10.154,-25.817 -10.154,-40.379c0,-9.708 1.65,-18.979 4.629,-27.696c11.484,-33.754 43.475,-58.146 81.209,-58.146c16.887,0 32.65,4.859 45.9,13.346c22.612,14.35 38.058,38.958 39.712,67.308c-13.566,8.5 -28.354,16.221 -43.571,22.73c-10.375,4.3 -20.97,8.166 -31.558,11.362c-9.937,2.871 -20.746,5.183 -32.212,7.063c-11.484,1.766 -23.617,2.979 -35.863,3.758c-6.071,0.325 -12.133,0.546 -18.092,0.654m161.409,-37.404c-1.538,46.012 -39.388,82.754 -85.725,82.754c-29.9,0 -56.267,-15.233 -71.604,-38.508c4.745,-0.113 9.6,-0.338 14.345,-0.554c12.467,-0.763 24.821,-1.984 36.63,-3.859c11.8,-1.879 22.95,-4.304 32.983,-7.283l0.112,-0c10.817,-3.204 21.625,-7.067 32.221,-11.583c14.225,-6.067 28.134,-13.138 41.038,-20.967" style="fill:#f39200;"/></svg>