<?xml version="1.0" encoding="UTF-8" standalone="no"?><!DOCTYPE svg PUBLIC "-//W3C//DTD SVG 1.1//EN" "http://www.w3.org/Graphics/SVG/1.1/DTD/svg11.dtd"><svg width="100%" height="100%" viewBox="0 0 2481 3508" version="1.1" xmlns="http://www.w3.org/2000/svg" xmlns:xlink="http://www.w3.org/1999/xlink" xml:space="preserve" xmlns:serif="http://www.serif.com/" style="fill-rule:evenodd;clip-rule:evenodd;stroke-linejoin:round;stroke-miterlimit:2;"><g><g><path d="M446.863,239.34c-8.564,-1.221 -15.196,-8.631 -15.196,-17.582c-0,-9.728 7.919,-17.708 17.708,-17.708c9.469,-0 17.198,7.406 17.709,16.745c-8.24,4.312 -15.257,10.685 -20.221,18.545" style="fill:#009fe3;"/></g><g><path d="M435.398,295.758c-4.699,9.6 -14.613,16.228 -26.012,16.228c-16.038,-0 -29.047,-13.008 -29.047,-28.982c-0,-0.319 0.065,-0.642 0.065,-0.966c9.016,8.048 30.847,12.687 54.994,13.72m2.969,-12.754c0,3.091 -0.518,6.056 -1.354,8.826c-26.859,-0.839 -50.618,-5.924 -55.964,-15.006c0.126,-0.774 0.323,-1.547 0.576,-2.255c3.609,-11.915 14.683,-20.547 27.761,-20.547c6.051,0 11.657,1.868 16.293,5.03c7.661,5.212 12.688,13.97 12.688,23.952" style="fill:#e30613;"/></g><g><path d="M551.193,259.563c-9.335,-4.831 -15.649,-14.554 -15.649,-25.762c0,-15.974 12.942,-28.981 28.982,-28.981c7.919,-0 15.135,3.22 20.352,8.376c-0.129,10.237 -6.314,21.184 -16.361,31.555c-4.959,5.153 -10.816,10.113 -17.324,14.812m42.31,-25.762c-0,16.033 -13.005,28.982 -28.977,28.982c-3.152,-0 -6.117,-0.45 -8.948,-1.416c5.918,-4.38 11.263,-9.016 15.904,-13.785c9.339,-9.656 15.58,-19.961 17.13,-29.879c3.091,4.57 4.891,10.108 4.891,16.098" style="fill:#3baa35;"/></g><g><path d="M448.412,291.893c-3.738,-7.017 -5.929,-15.07 -5.929,-23.57c-0,-5.667 0.965,-11.078 2.704,-16.167c6.703,-19.703 25.375,-33.94 47.403,-33.94c9.855,-0 19.058,2.836 26.79,7.79c13.202,8.376 22.218,22.741 23.184,39.289c-7.92,4.962 -16.551,9.468 -25.436,13.267c-6.054,2.51 -12.239,4.767 -18.419,6.633c-5.8,1.676 -12.109,3.025 -18.803,4.122c-6.703,1.032 -13.785,1.739 -20.933,2.194c-3.544,0.19 -7.083,0.319 -10.561,0.382m94.217,-21.833c-0.897,26.858 -22.991,48.305 -50.039,48.305c-17.453,-0 -32.844,-8.89 -41.797,-22.478c2.768,-0.066 5.604,-0.197 8.374,-0.324c7.277,-0.445 14.489,-1.158 21.381,-2.252c6.888,-1.097 13.394,-2.512 19.253,-4.251l0.066,-0c6.311,-1.871 12.623,-4.125 18.805,-6.764c8.306,-3.539 16.422,-7.666 23.957,-12.236" style="fill:#f39200;"/></g><g><path d="M168.522,364.861l-18.485,-0c-8.439,-0 -15.456,2.641 -21.189,7.924c-5.73,5.343 -8.627,12.041 -8.627,20.286c0,8.306 2.958,15.197 8.827,20.671c5.852,5.475 12.939,8.245 21.376,8.245l18.098,0l-0,-57.126Zm-57.385,46.819c-3.025,-5.925 -4.57,-12.166 -4.57,-18.609c0,-11.718 4.186,-21.573 12.555,-29.431c8.308,-7.924 18.419,-11.918 30.208,-11.918l32.07,0l0,109.489l-12.878,-0l-0,-27.311l-19.837,0c-8.053,0 -15.391,-1.994 -22.023,-5.861c-6.63,-3.863 -11.852,-9.335 -15.525,-16.359" style="fill:#1d1d1b;"/></g><g><path d="M190.932,398.996l-0,-47.14l13.138,0l0,46.432c0,6.827 2.187,12.621 6.567,17.325c4.38,4.703 9.918,7.08 16.682,7.08c6.827,-0 12.429,-2.316 16.872,-7.015c4.444,-4.706 6.633,-10.431 6.633,-17.261l-0,-46.561l13.396,0l-0,82.046l-13.396,0l-0,-8.626c-4.378,3.409 -8.18,5.732 -11.398,7.082c-3.993,1.739 -8.373,2.573 -13.138,2.573c-9.918,0 -18.292,-3.475 -25.115,-10.558c-6.829,-7.021 -10.241,-15.519 -10.241,-25.377" style="fill:#1d1d1b;"/></g><g><path d="M335.837,433.9l0,-70.389l-18.221,-0c-8.377,-0 -15.525,2.836 -21.386,8.437c-5.857,5.601 -8.756,12.557 -8.756,20.866c-0,8.303 2.831,15.259 8.627,20.802c5.795,5.54 12.817,8.371 21.125,8.371c4.96,0 9.595,-1.221 13.781,-3.543l0,13.199c-5.536,1.873 -10.305,2.775 -14.425,2.775c-11.85,0 -21.897,-3.996 -30.266,-11.983c-8.376,-8.048 -12.56,-17.901 -12.56,-29.621c0,-6.635 1.542,-13.01 4.636,-19c3.673,-7.02 8.826,-12.426 15.452,-16.293c6.637,-3.868 13.98,-5.801 22.028,-5.801l32.715,-0l-0,82.18l-12.75,0Z" style="fill:#1d1d1b;"/></g><g><path d="M356.124,329.957l13.007,-0l0,21.765l28.469,0l-0,12.305l-28.469,-0l0,40.446c0,1.226 0.389,2.96 1.097,5.344c0.773,2.315 1.481,3.996 2.189,4.957c3.417,4.767 9.468,7.213 18.1,7.213l9.719,0l0,11.915c-0.513,0 -3.344,0 -8.371,0.129c-3.795,0.066 -6.825,0.066 -9.206,0c-3.352,-0.257 -6.185,-0.771 -8.564,-1.483c-5.282,-1.477 -9.663,-4.507 -12.949,-9.016c-3.346,-4.57 -5.022,-9.658 -5.022,-15.262l-0,-78.313Z" style="fill:#1d1d1b;"/></g><g><path d="M402.877,329.957l13.012,-0l0,21.765l28.469,0l-0,12.305l-28.469,-0l0,40.446c0,1.226 0.321,2.96 1.097,5.344c0.708,2.315 1.481,3.996 2.119,4.957c3.419,4.767 9.471,7.213 18.166,7.213l9.66,0l0,11.915c-0.518,0 -3.286,0 -8.374,0.129c-3.733,0.066 -6.827,0.066 -9.206,0c-3.288,-0.257 -6.119,-0.771 -8.502,-1.483c-5.346,-1.477 -9.663,-4.507 -13.008,-9.016c-3.288,-4.57 -4.964,-9.658 -4.964,-15.262l0,-78.313Z" style="fill:#1d1d1b;"/></g><g><path d="M496.002,362.866c-8.692,0 -16.161,2.897 -22.346,8.761c-6.251,5.859 -9.335,13.01 -9.335,21.379c0.063,8.371 3.218,15.395 9.468,21.121c6.181,5.671 13.586,8.507 22.213,8.507c8.632,0 16.104,-2.836 22.349,-8.507c6.246,-5.726 9.469,-12.75 9.534,-21.121c0.061,-8.369 -3.025,-15.52 -9.405,-21.379c-6.309,-5.864 -13.846,-8.761 -22.478,-8.761m0,72.199c-12.105,0 -22.541,-4.057 -31.299,-12.178c-8.756,-8.116 -13.068,-18.09 -13.068,-29.942c-0,-11.786 4.312,-21.77 13.068,-30.013c8.758,-8.243 19.194,-12.37 31.299,-12.37c12.11,0 22.673,4.127 31.494,12.37c8.822,8.243 13.268,18.227 13.268,30.013c-0,11.852 -4.446,21.826 -13.268,29.942c-8.821,8.121 -19.384,12.178 -31.494,12.178" style="fill:#1d1d1b;"/></g><g><path d="M599.106,370.015c-4.504,-4.765 -10.105,-7.149 -16.93,-7.149c-6.766,0 -12.304,2.318 -16.745,7.02c-4.381,4.638 -6.638,10.431 -6.638,17.324l0,46.69l-13.522,0l-0,-82.178l13.522,0l0,8.569c4.381,-3.415 8.182,-5.796 11.402,-7.083c3.989,-1.744 8.369,-2.646 13.139,-2.646c11.139,0 20.223,4.385 27.306,13.139l-11.534,6.314Z" style="fill:#1d1d1b;"/></g><g><path d="M317.419,489.869l-0,-26.406l-6.828,-0c-3.154,-0 -5.861,1.097 -8.05,3.157c-2.191,2.118 -3.283,4.704 -3.283,7.853c-0,3.092 1.092,5.733 3.215,7.795c2.196,2.129 4.833,3.157 7.924,3.157c1.868,0 3.607,-0.45 5.149,-1.352l-0,4.959c-2.06,0.708 -3.86,1.031 -5.404,1.031c-4.381,0 -8.18,-1.481 -11.334,-4.443c-3.094,-3.028 -4.704,-6.766 -4.704,-11.147c-0,-2.505 0.579,-4.893 1.739,-7.145c1.355,-2.642 3.283,-4.636 5.796,-6.117c2.512,-1.421 5.282,-2.128 8.308,-2.128l12.236,-0l0,30.786l-4.764,-0Z" style="fill:#1d1d1b;fill-rule:nonzero;"/></g><g><path d="M355.032,467.714c-2.77,-3.025 -5.862,-4.509 -9.276,-4.509c-3.089,0 -5.667,1.095 -7.856,3.349c-2.257,2.257 -3.349,4.894 -3.349,7.987c-0,3.026 1.092,5.667 3.349,7.856c2.189,2.189 4.767,3.286 7.856,3.286c2.317,0 4.446,-0.644 6.311,-1.865c1.868,-1.292 3.218,-2.97 3.991,-5.093l3.349,3.222c-2.96,5.604 -7.34,8.374 -13.009,8.374c-4.699,0 -8.561,-1.42 -11.721,-4.317c-3.283,-2.96 -4.959,-6.824 -4.959,-11.463c-0,-4.509 1.549,-8.308 4.704,-11.336c3.091,-3.089 6.953,-4.572 11.528,-4.572c5.601,-0 9.919,2.128 13.007,6.44l-3.925,2.641Z" style="fill:#1d1d1b;fill-rule:nonzero;"/></g><g><path d="M387.552,489.869l0,-26.406l-6.89,-0c-3.159,-0 -5.798,1.097 -7.982,3.157c-2.257,2.118 -3.354,4.704 -3.354,7.853c-0,3.092 1.097,5.733 3.286,7.795c2.123,2.129 4.764,3.157 7.919,3.157c1.868,0 3.611,-0.45 5.153,-1.352l0,4.959c-2.06,0.708 -3.864,1.031 -5.409,1.031c-4.441,0 -8.242,-1.481 -11.334,-4.443c-3.159,-3.028 -4.703,-6.766 -4.703,-11.147c-0,-2.505 0.581,-4.893 1.678,-7.145c1.415,-2.642 3.346,-4.636 5.856,-6.117c2.447,-1.421 5.217,-2.128 8.245,-2.128l12.3,-0l-0,30.786l-4.765,-0Z" style="fill:#1d1d1b;fill-rule:nonzero;"/></g><g><path d="M424.066,463.529l-6.827,-0c-3.157,-0 -5.798,1.031 -8.05,3.154c-2.192,2.058 -3.284,4.701 -3.284,7.79c0,3.092 1.092,5.606 3.221,7.542c2.191,1.927 4.827,2.895 7.987,2.895l6.953,-0l0,-21.381Zm-21.575,3.799c1.415,-2.639 3.349,-4.636 5.861,-6.117c2.447,-1.421 5.217,-2.128 8.243,-2.128l7.471,-0l0,-8.114l4.765,-0l-0,38.9l-11.981,-0c-4.441,-0 -8.24,-1.42 -11.395,-4.38c-3.093,-2.963 -4.638,-6.635 -4.638,-11.016c0,-2.505 0.577,-4.893 1.674,-7.145" style="fill:#1d1d1b;fill-rule:nonzero;"/></g><g><path d="M464.579,472.158c-0.903,-5.988 -4.641,-8.953 -11.079,-8.953c-3.286,0 -6.051,1.092 -8.439,3.281c-2.321,2.192 -3.478,4.898 -3.413,8.053c0,3.091 1.092,5.733 3.284,7.856c2.189,2.191 4.83,3.288 7.924,3.288c2.573,0 5.085,-0.518 7.467,-1.486c2.775,-1.221 4.511,-2.765 5.282,-4.764l3.286,3.159c-1.352,2.573 -3.544,4.507 -6.44,5.857c-2.702,1.225 -5.728,1.87 -9.016,1.87c-4.575,-0 -8.503,-1.481 -11.787,-4.509c-3.22,-3.092 -4.891,-6.83 -4.891,-11.271c0,-4.446 1.671,-8.177 4.959,-11.268c3.281,-3.091 7.209,-4.641 11.719,-4.641c4.959,0 8.821,1.16 11.591,3.352c3.349,2.575 4.959,6.632 4.959,12.044c0,0.708 0,1.352 -0.063,2.06l-23.57,-0l0,-3.928l18.227,-0Z" style="fill:#1d1d1b;fill-rule:nonzero;"/></g><g><path d="M505.086,489.869l-4.835,-0l0,-17.519c0,-2.576 -0.836,-4.704 -2.51,-6.504c-1.61,-1.739 -3.735,-2.641 -6.248,-2.641c-2.576,0 -4.699,0.902 -6.309,2.641c-1.678,1.739 -2.51,3.928 -2.51,6.504l0,17.519l-5.03,-0l0,-30.786l5.03,-0l0,3.159c1.673,-1.223 3.089,-2.126 4.315,-2.641c1.481,-0.647 3.089,-0.971 4.893,-0.971c2.318,0 4.444,0.513 6.375,1.615c1.933,1.155 3.478,2.576 4.699,4.441c1.352,-1.804 3.03,-3.286 5.154,-4.378c2.06,-1.165 4.183,-1.678 6.374,-1.678c3.673,0 6.825,1.292 9.403,3.933c2.515,2.637 3.799,5.859 3.799,9.524l0,17.782l-4.891,-0l-0,-17.519c-0,-2.576 -0.839,-4.704 -2.512,-6.504c-1.611,-1.739 -3.673,-2.641 -6.251,-2.641c-2.51,0 -4.636,0.837 -6.375,2.576c-1.671,1.804 -2.571,3.928 -2.571,6.44l0,17.648Z" style="fill:#1d1d1b;fill-rule:nonzero;"/></g><g><path d="M535.997,453.481c-0,-0.647 0.192,-1.221 0.705,-1.671c0.455,-0.518 1.034,-0.712 1.676,-0.712c0.708,-0 1.286,0.194 1.739,0.712c0.515,0.45 0.71,1.024 0.71,1.671c0,0.708 -0.195,1.287 -0.71,1.739c-0.453,0.514 -1.031,0.708 -1.739,0.708c-0.642,0 -1.221,-0.194 -1.676,-0.708c-0.513,-0.452 -0.705,-1.031 -0.705,-1.739m4.83,36.388l-5.025,-0l0,-31.239l5.025,0l0,31.239Z" style="fill:#1d1d1b;fill-rule:nonzero;"/></g><g><path d="M572.513,489.869l0,-26.406l-6.827,-0c-3.157,-0 -5.861,1.097 -8.05,3.157c-2.192,2.118 -3.286,4.704 -3.286,7.853c-0,3.092 1.094,5.733 3.222,7.795c2.187,2.129 4.828,3.157 7.92,3.157c1.867,0 3.611,-0.45 5.217,-1.352l-0,4.959c-2.124,0.708 -3.928,1.031 -5.412,1.031c-4.441,0 -8.245,-1.481 -11.395,-4.443c-3.093,-3.028 -4.703,-6.766 -4.703,-11.147c-0,-2.505 0.578,-4.893 1.738,-7.145c1.355,-2.642 3.35,-4.636 5.796,-6.117c2.513,-1.421 5.283,-2.128 8.309,-2.128l12.236,-0l-0,30.786l-4.765,-0Z" style="fill:#1d1d1b;fill-rule:nonzero;"/></g></g><path d="M2079.33,289.34l-0,48.512l48.512,0l0,-48.512l-48.512,-0Zm55.443,-0l-0,6.93l6.93,-0l0,6.93l-6.93,0l-0,6.931l13.861,-0l-0,6.93l-6.931,0l0,6.931l13.861,-0l-0,6.93l6.93,0l0,6.93l-6.93,0l-0,-6.93l-6.93,0l-0,13.861l6.93,-0l-0,6.93l6.93,0l0,-6.93l6.931,-0l-0,-13.861l6.93,0l0,6.93l6.931,0l-0,27.722l6.93,0l-0,6.93l6.93,0l0,-6.93l6.931,0l-0,6.93l6.93,0l0,20.792l-6.93,-0l-0,-13.861l-13.861,-0l-0,-6.931l-6.93,0l-0,-6.93l-6.931,0l0,6.93l6.931,0l-0,6.931l-6.931,-0l0,20.791l-6.93,0l-0,-6.93l-6.931,-0l0,6.93l6.931,0l-0,13.861l6.93,-0l0,-6.931l6.931,0l-0,13.861l6.93,0l-0,13.861l-6.93,0l-0,6.93l-13.861,0l-0,-6.93l6.93,0l0,-13.861l-6.93,0l-0,-6.93l-13.861,-0l-0,-6.931l6.93,0l0,-6.93l-6.93,0l-0,-6.93l-6.93,-0l-0,-6.931l-6.931,0l0,-13.861l-6.93,0l-0,-6.93l-6.931,0l0,-6.93l-6.93,-0l-0,6.93l6.93,0l0,6.93l6.931,0l-0,6.931l-6.931,-0l0,-6.931l-6.93,0l-0,-6.93l-6.93,0l-0,-13.861l-6.931,0l0,6.931l-6.93,-0l-0,-13.861l-6.931,-0l0,6.93l-6.93,0l-0,-6.93l-6.93,-0l-0,20.791l6.93,0l-0,6.93l6.93,0l0,6.931l20.792,-0l-0,13.861l-6.931,-0l0,6.93l-6.93,0l-0,-6.93l-13.861,-0l-0,6.93l13.861,0l-0,6.93l6.93,0l0,13.861l6.931,0l-0,-20.791l6.93,0l-0,6.93l20.791,0l0,6.931l6.931,-0l-0,13.861l6.93,-0l-0,-6.931l6.93,0l0,13.861l-6.93,0l-0,6.93l6.93,0l0,6.931l13.861,-0l0,6.93l-13.861,0l0,-6.93l-6.93,-0l-0,6.93l6.93,0l0,6.931l-6.93,-0l-0,-6.931l-13.861,0l0,13.861l6.931,0l-0,13.861l13.86,-0l0,6.93l6.931,0l-0,-6.93l6.93,-0l0,6.93l20.791,0l0,-6.93l-6.93,-0l-0,-13.861l13.861,0l-0,-6.93l-6.931,-0l0,-13.861l-6.93,-0l-0,-6.931l6.93,0l0,6.931l6.931,-0l-0,13.861l20.791,-0l-0,6.93l-6.93,0l-0,6.93l-6.931,0l0,6.931l6.931,-0l-0,6.93l6.93,0l-0,-13.861l6.93,0l0,-13.86l13.861,-0l0,13.86l-6.93,0l-0,6.931l-6.931,-0l0,6.93l27.722,0l0,-13.861l-6.93,0l-0,-6.93l13.86,0l0,6.93l13.861,0l0,-13.86l-6.93,-0l-0,-6.931l-6.931,0l0,6.931l6.931,-0l-0,6.93l-6.931,0l0,-6.93l-6.93,-0l0,-6.931l-6.93,0l-0,-13.861l13.86,0l0,-6.93l-6.93,0l0,-6.93l-6.93,-0l-0,-6.931l6.93,0l0,-6.93l-13.861,-0l0,-13.861l-13.861,0l0,-6.93l6.931,-0l-0,-6.931l6.93,0l0,6.931l6.931,-0l-0,-6.931l-6.931,0l0,-6.93l-6.93,-0l-0,-6.931l6.93,0l0,-6.93l6.931,0l-0,6.93l6.93,0l0,-6.93l6.93,0l0,-6.93l-27.721,-0l-0,-6.931l-6.931,0l0,6.931l6.931,-0l-0,6.93l-6.931,0l0,13.861l-13.86,-0l-0,-13.861l6.93,0l-0,-20.791l-13.861,-0l0,20.791l-6.93,0l-0,-6.93l-6.931,-0l0,-6.931l-6.93,0l-0,-13.861l-6.93,0l-0,-27.721l-6.931,-0l0,-6.931l-6.93,0l-0,-13.86l-13.861,-0l-0,20.791l-6.93,-0l-0,-13.861l-6.931,-0l0,-6.93l-6.93,-0Zm41.582,-0l0,6.93l6.931,-0l-0,-6.93l-6.931,-0Zm20.791,-0l0,6.93l13.861,-0l0,-6.93l-13.861,-0Zm34.652,-0l0,48.512l48.513,0l0,-48.512l-48.513,-0Zm-110.886,6.93l-0,34.652l-34.652,0l-0,-34.652l34.652,-0Zm69.304,-0l-0,6.93l6.93,0l0,20.792l6.931,-0l-0,13.86l6.93,0l0,-27.721l-6.93,-0l-0,-6.931l-6.931,0l0,-6.93l-6.93,-0Zm27.722,-0l-0,13.861l6.93,-0l-0,-13.861l-6.93,-0Zm55.443,-0l-0,34.652l-34.652,0l-0,-34.652l34.652,-0Zm-180.191,6.93l0,20.792l20.792,-0l-0,-20.792l-20.792,0Zm90.096,0l-0,6.931l6.93,-0l-0,-6.931l-6.93,0Zm62.373,0l0,20.792l20.791,-0l0,-20.792l-20.791,0Zm-76.234,13.861l6.93,0l0,6.931l-6.93,-0l-0,-6.931l-6.931,0l0,-13.861l6.931,0l-0,13.861Zm-34.652,6.931l-0,13.86l6.93,0l0,-13.86l-6.93,-0Zm27.721,-0l-6.93,-0l-0,-6.931l6.93,0l0,6.931Zm55.444,-0l-0,13.86l6.93,0l-0,-13.86l-6.93,-0Zm-27.722,6.93l-0,6.93l6.93,0l0,-6.93l-6.93,0Zm-69.304,13.861l-0,6.93l13.861,0l-0,-6.93l-13.861,-0Zm20.791,-0l0,13.861l6.931,-0l-0,-13.861l-6.931,-0Zm97.026,-0l-0,6.93l6.93,0l0,-6.93l-6.93,-0Zm20.791,-0l0,6.93l6.93,0l0,6.931l6.931,-0l-0,6.93l6.93,0l0,-20.791l-6.93,-0l-0,6.93l-6.931,0l0,-6.93l-6.93,-0Zm-90.095,6.93l-0,6.931l6.93,-0l0,-6.931l-6.93,0Zm-76.235,6.931l0,6.93l-6.93,0l-0,-6.93l6.93,-0Zm69.304,-0l0,6.93l-20.791,0l0,6.93l6.931,0l-0,6.931l13.86,-0l0,6.93l6.931,0l-0,-27.721l-6.931,-0Zm-55.443,6.93l0,6.93l-6.93,0l-0,-6.93l6.93,0Zm166.33,6.93l-0,6.931l-6.931,-0l0,6.93l6.931,0l-0,6.931l6.93,-0l0,-20.792l-6.93,0Zm-194.051,6.931l-0,6.93l13.86,0l0,-6.93l-13.86,-0Zm41.582,6.93l-0,-6.93l6.93,-0l0,6.93l6.931,0l-0,6.931l6.93,-0l0,6.93l6.931,0l-0,6.93l-6.931,0l0,-6.93l-20.791,0l-0,-6.93l6.93,-0l0,-6.931l-6.93,0Zm76.234,0l0,6.931l6.931,-0l-0,6.93l13.861,0l-0,6.93l-6.931,0l0,6.931l-6.93,-0l-0,-6.931l-6.931,0l0,-13.86l-6.93,-0l-0,-6.931l6.93,0Zm27.722,0l-0,6.931l-6.93,-0l-0,-6.931l6.93,0Zm-145.538,13.861l-0,6.93l6.93,0l-0,6.931l-6.93,-0l-0,6.93l20.791,0l-0,-6.93l-6.931,-0l0,-6.931l-6.93,0l-0,-6.93l-6.93,0Zm110.886,0l-0,6.93l6.93,0l0,13.861l6.931,0l-0,6.931l6.93,-0l0,13.86l6.931,0l-0,6.931l-6.931,-0l0,-6.931l-13.861,0l0,-20.791l-6.93,0l-0,-13.861l-6.93,0l-0,-6.93l6.93,0Zm83.165,0l-0,6.93l-13.861,0l0,6.931l13.861,-0l-0,6.93l6.93,0l0,-20.791l-6.93,0Zm-48.513,6.93l-0,-6.93l6.93,0l0,6.93l-6.93,0Zm-103.956,6.931l-0,6.93l13.861,0l-0,-6.93l-13.861,-0Zm110.886,-0l0,6.93l13.861,0l0,6.931l-13.861,-0l0,-6.931l-6.93,0l-0,-6.93l6.93,-0Zm-13.86,6.93l-0,6.931l-6.931,-0l0,-6.931l6.931,0Zm-138.608,6.931l-0,6.93l13.86,0l0,-6.93l-13.86,-0Zm20.791,-0l-0,6.93l6.93,0l0,-6.93l-6.93,-0Zm13.861,-0l-0,6.93l13.86,0l0,-6.93l-13.86,-0Zm27.721,-0l0,6.93l6.931,0l-0,-6.93l-6.931,-0Zm124.747,-0l0,6.93l6.931,0l-0,13.861l6.93,-0l0,-13.861l-6.93,0l-0,-6.93l-6.931,-0Zm-131.677,6.93l-0,13.861l13.861,-0l-0,-6.931l-6.931,0l0,-6.93l-6.93,0Zm110.886,0l0,20.791l-20.791,0l-0,-20.791l20.791,0Zm-166.329,6.93l-0,48.513l48.512,0l0,-48.513l-48.512,0Zm152.468,0l0,6.931l6.931,-0l-0,-6.931l-6.931,0Zm-110.886,6.931l-0,34.652l-34.652,-0l-0,-34.652l34.652,-0Zm-27.722,6.93l0,20.791l20.792,0l-0,-20.791l-20.792,0Zm97.026,0l-0,6.931l-6.93,-0l-0,-6.931l6.93,0Zm-13.861,6.931l0,13.86l-13.861,0l0,-6.93l6.931,0l-0,-6.93l6.93,-0Zm-41.582,6.93l-0,6.93l6.93,0l0,-6.93l-6.93,0Zm20.791,0l-6.93,0l-0,-6.93l6.93,-0l-0,6.93Zm-20.791,13.861l-0,6.93l6.93,0l0,-6.93l-6.93,-0Zm138.608,-0l-0,6.93l6.93,0l0,-6.93l-6.93,-0Z"/><g><path d="M129.201,3313.58c-10.833,-1.542 -19.25,-10.917 -19.25,-22.25c-0,-12.334 10.042,-22.417 22.417,-22.417c12.375,0 21.791,9.375 22.416,21.208c-10.416,5.459 -19.333,13.542 -25.583,23.459" style="fill:#079cd9;fill-rule:nonzero;"/><path d="M118.451,3368.87c-0,3.917 -0.667,7.667 -1.708,11.167c-34,-1.083 -64.084,-7.5 -70.834,-19c0.167,-1 0.417,-1.958 0.75,-2.875c4.584,-15.083 18.584,-26 35.125,-26c7.667,0 14.75,2.375 20.625,6.375c9.709,6.583 16.084,17.667 16.084,30.333m-3.792,16.167c-5.958,12.167 -18.5,20.542 -32.917,20.542c-20.291,-0 -36.791,-16.459 -36.791,-36.709c-0,-0.416 0.083,-0.833 0.083,-1.208c11.417,10.208 39.042,16.042 69.625,17.375" style="fill:#e41f26;fill-rule:nonzero;"/><path d="M314.868,3306.58c-0,20.291 -16.459,36.708 -36.667,36.708c-4,0 -7.75,-0.583 -11.333,-1.792c7.5,-5.541 14.25,-11.416 20.125,-17.458c11.833,-12.208 19.708,-25.292 21.666,-37.833c3.917,5.791 6.209,12.791 6.209,20.375m-53.584,32.625c-11.833,-6.125 -19.791,-18.417 -19.791,-32.625c-0,-20.209 16.375,-36.709 36.708,-36.709c10.042,0 19.167,4.084 25.75,10.584c-0.167,12.958 -8,26.833 -20.708,39.958c-6.292,6.542 -13.709,12.792 -21.917,18.75" style="fill:#3daa48;fill-rule:nonzero;"/><path d="M250.451,3352.5c-1.125,34 -29.125,61.167 -63.333,61.167c-22.084,0 -41.584,-11.25 -52.917,-28.458c3.5,-0.084 7.083,-0.25 10.583,-0.417c9.209,-0.583 18.334,-1.458 27.084,-2.833c8.708,-1.375 16.958,-3.167 24.375,-5.375l0.083,-0c8,-2.375 16,-5.209 23.792,-8.584c10.5,-4.5 20.791,-9.708 30.333,-15.5m-119.292,27.625c-4.75,-8.875 -7.5,-19.083 -7.5,-29.833c0,-7.167 1.209,-14.042 3.417,-20.458c8.5,-24.959 32.125,-42.959 60,-42.959c12.5,0 24.125,3.584 33.917,9.875c16.708,10.584 28.125,28.792 29.333,49.75c-10.042,6.292 -20.958,12 -32.208,16.792c-7.667,3.167 -15.5,6.042 -23.334,8.375c-7.333,2.125 -15.333,3.833 -23.791,5.208c-8.5,1.292 -17.459,2.209 -26.5,2.792c-4.5,0.25 -8.959,0.417 -13.375,0.5" style="fill:#f29120;fill-rule:nonzero;"/></g><g transform="matrix(18.6186,0,0,13.4395,-1794.24,3113.49)"><text x="117.797px" y="20.514px" style="font-family:'DINCondensed-Bold', 'DIN Condensed';font-weight:700;font-stretch:condensed;font-size:12px;">SEMANA 6</text><text x="157.805px" y="20.514px" style="font-family:'DINCondensed-Bold', 'DIN Condensed';font-weight:700;font-stretch:condensed;font-size:12px;fill:#e41f26;">|</text></g><g transform="matrix(0.572794,0,0,1,-129.678,-4.54747e-13)"><g transform="matrix(144.663,0,0,144.663,4129.93,3399.75)"></g><text x="2340.83px" y="3399.74px" style="font-family:'DINCondensed-Bold', 'DIN Condensed';font-weight:700;font-stretch:condensed;font-size:144.663px;">HIPER<tspan x="2604.12px 2652.15px " y="3399.74px 3399.74px ">TR</tspan>OFIA TENSIONAL E MET<tspan x="3720.1px 3778.97px " y="3399.74px 3399.74px ">AB</tspan>ÓLICA</text></g><path d="M2270.78,3257.14l0,39.717l39.717,0l0,-39.717l-39.717,0Zm45.391,0l0,5.674l5.674,0l0,5.674l-5.674,-0l0,5.674l11.348,-0l0,5.674l-5.674,-0l0,5.674l11.348,-0l0,5.674l5.674,-0l0,5.673l-5.674,0l0,-5.673l-5.674,-0l0,11.347l5.674,0l0,5.674l5.674,0l0,-5.674l5.674,0l-0,-11.347l5.674,-0l-0,5.673l5.674,0l-0,22.696l5.674,0l-0,5.674l5.674,-0l-0,-5.674l5.673,0l0,5.674l5.674,-0l0,17.022l-5.674,-0l0,-11.348l-11.347,-0l-0,-5.674l-5.674,-0l-0,-5.674l-5.674,0l-0,5.674l5.674,-0l-0,5.674l-5.674,-0l-0,17.022l-5.674,-0l-0,-5.674l-5.674,-0l0,5.674l5.674,-0l-0,11.347l5.674,0l-0,-5.673l5.674,-0l-0,11.347l5.674,0l-0,11.348l-5.674,0l-0,5.674l-11.348,0l-0,-5.674l5.674,0l-0,-11.348l-5.674,0l-0,-5.674l-11.348,0l0,-5.673l5.674,-0l0,-5.674l-5.674,-0l0,-5.674l-5.674,-0l0,-5.674l-5.674,-0l0,-11.348l-5.674,-0l0,-5.674l-5.674,0l0,-5.674l-5.673,0l-0,5.674l5.673,0l0,5.674l5.674,-0l0,5.674l-5.674,-0l0,-5.674l-5.673,-0l-0,-5.674l-5.674,0l-0,-11.348l-5.674,0l-0,5.674l-5.674,0l-0,-11.348l-5.674,0l-0,5.674l-5.674,0l0,-5.674l-5.674,0l0,17.022l5.674,0l0,5.674l5.674,-0l-0,5.674l17.022,-0l-0,11.348l-5.674,-0l-0,5.674l-5.674,-0l-0,-5.674l-11.348,-0l0,5.674l11.348,-0l-0,5.674l5.674,-0l-0,11.347l5.674,0l-0,-17.021l5.674,-0l-0,5.674l17.021,-0l0,5.673l5.674,0l0,11.348l5.674,0l0,-5.674l5.674,0l0,11.348l-5.674,0l0,5.674l5.674,0l0,5.674l11.348,-0l-0,5.674l-11.348,-0l0,-5.674l-5.674,-0l0,5.674l5.674,-0l0,5.674l-5.674,-0l0,-5.674l-11.348,-0l0,11.348l5.674,-0l0,11.347l11.348,0l0,5.674l5.674,0l-0,-5.674l5.674,0l-0,5.674l17.022,0l-0,-5.674l-5.674,0l-0,-11.347l11.347,-0l0,-5.674l-5.673,-0l-0,-11.348l-5.674,-0l-0,-5.674l5.674,0l-0,5.674l5.673,-0l0,11.348l17.022,-0l0,5.674l-5.674,-0l0,5.674l-5.674,-0l0,5.673l5.674,0l0,5.674l5.674,0l0,-11.347l5.674,-0l0,-11.348l11.348,-0l-0,11.348l-5.674,-0l-0,5.673l-5.674,0l0,5.674l22.696,0l-0,-11.347l-5.674,-0l-0,-5.674l11.348,-0l-0,5.674l11.347,-0l0,-11.348l-5.674,-0l0,-5.674l-5.673,-0l-0,5.674l5.673,-0l0,5.674l-5.673,-0l-0,-5.674l-5.674,-0l-0,-5.674l-5.674,-0l-0,-11.348l11.348,0l-0,-5.674l-5.674,0l-0,-5.674l-5.674,0l-0,-5.674l5.674,0l-0,-5.674l-11.348,0l-0,-11.347l-11.348,-0l0,-5.674l5.674,-0l-0,-5.674l5.674,-0l-0,5.674l5.674,-0l-0,-5.674l-5.674,-0l-0,-5.674l-5.674,-0l-0,-5.674l5.674,-0l-0,-5.674l5.674,0l-0,5.674l5.674,-0l-0,-5.674l5.674,0l-0,-5.674l-22.696,0l-0,-5.674l-5.674,0l0,5.674l5.674,0l-0,5.674l-5.674,0l0,11.348l-11.348,-0l0,-11.348l5.674,0l0,-17.022l-11.348,0l0,17.022l-5.674,0l0,-5.674l-5.673,0l-0,-5.674l-5.674,0l-0,-11.348l-5.674,0l-0,-22.695l-5.674,-0l-0,-5.674l-5.674,-0l-0,-11.348l-11.348,0l0,17.022l-5.674,-0l0,-11.348l-5.674,0l0,-5.674l-5.674,0Zm34.044,0l-0,5.674l5.674,0l-0,-5.674l-5.674,0Zm17.022,0l-0,5.674l11.347,0l0,-5.674l-11.347,0Zm28.369,0l0,39.717l39.717,0l0,-39.717l-39.717,0Zm-90.782,5.674l-0,28.37l-28.37,-0l0,-28.37l28.37,0Zm56.739,0l-0,5.674l5.674,-0l-0,17.022l5.673,-0l0,11.347l5.674,0l0,-22.695l-5.674,-0l0,-5.674l-5.673,-0l-0,-5.674l-5.674,0Zm22.695,0l0,11.348l5.674,-0l0,-11.348l-5.674,0Zm45.391,0l0,28.37l-28.369,-0l-0,-28.37l28.369,0Zm-147.521,5.674l-0,17.022l17.022,-0l-0,-17.022l-17.022,-0Zm73.761,-0l-0,5.674l5.674,-0l-0,-5.674l-5.674,-0Zm51.065,-0l-0,17.022l17.022,-0l-0,-17.022l-17.022,-0Zm-62.413,11.348l5.674,-0l-0,5.674l-5.674,-0l-0,-5.674l-5.674,-0l0,-11.348l5.674,-0l-0,11.348Zm-28.37,5.674l0,11.347l5.674,0l0,-11.347l-5.674,-0Zm22.696,-0l-5.674,-0l0,-5.674l5.674,-0l0,5.674Zm45.391,-0l0,11.347l5.674,0l0,-11.347l-5.674,-0Zm-22.695,5.674l-0,5.673l5.674,0l-0,-5.673l-5.674,-0Zm-56.739,11.347l-0,5.674l11.347,0l0,-5.674l-11.347,0Zm17.021,0l0,11.348l5.674,0l0,-11.348l-5.674,0Zm79.435,0l-0,5.674l5.674,0l-0,-5.674l-5.674,0Zm17.022,0l-0,5.674l5.674,0l-0,5.674l5.673,0l0,5.674l5.674,0l0,-17.022l-5.674,0l0,5.674l-5.673,0l-0,-5.674l-5.674,0Zm-73.761,5.674l-0,5.674l5.674,0l-0,-5.674l-5.674,0Zm-62.413,5.674l-0,5.674l-5.674,0l0,-5.674l5.674,0Zm56.739,0l0,5.674l-17.022,0l0,5.674l5.674,-0l0,5.674l11.348,-0l0,5.674l5.674,-0l-0,-22.696l-5.674,0Zm-45.391,5.674l-0,5.674l-5.674,-0l-0,-5.674l5.674,0Zm136.173,5.674l0,5.674l-5.673,-0l-0,5.674l5.673,-0l0,5.674l5.674,-0l0,-17.022l-5.674,-0Zm-158.869,5.674l0,5.674l11.348,-0l-0,-5.674l-11.348,-0Zm34.044,5.674l-0,-5.674l5.673,-0l0,5.674l5.674,-0l0,5.674l5.674,-0l0,5.674l5.674,-0l0,5.674l-5.674,-0l0,-5.674l-17.021,-0l-0,-5.674l5.673,-0l0,-5.674l-5.673,-0Zm62.413,-0l-0,5.674l5.673,-0l0,5.674l11.348,-0l0,5.674l-5.674,-0l0,5.673l-5.674,0l0,-5.673l-5.673,-0l-0,-11.348l-5.674,-0l-0,-5.674l5.674,-0Zm22.695,-0l0,5.674l-5.674,-0l0,-5.674l5.674,-0Zm-119.152,11.348l0,5.674l5.674,-0l0,5.673l-5.674,0l0,5.674l17.022,0l-0,-5.674l-5.674,0l-0,-5.673l-5.674,-0l0,-5.674l-5.674,-0Zm90.783,-0l-0,5.674l5.674,-0l-0,11.347l5.673,0l0,5.674l5.674,0l0,11.348l5.674,0l0,5.674l-5.674,-0l0,-5.674l-11.347,0l-0,-17.022l-5.674,0l-0,-11.347l-5.674,-0l-0,-5.674l5.674,-0Zm68.086,-0l0,5.674l-11.347,-0l-0,5.673l11.347,0l0,5.674l5.674,0l0,-17.021l-5.674,-0Zm-39.717,5.674l0,-5.674l5.674,-0l0,5.674l-5.674,-0Zm-85.108,5.673l-0,5.674l11.347,0l0,-5.674l-11.347,0Zm90.782,0l0,5.674l11.348,0l-0,5.674l-11.348,0l0,-5.674l-5.674,0l0,-5.674l5.674,0Zm-11.348,5.674l0,5.674l-5.674,0l0,-5.674l5.674,0Zm-113.478,5.674l0,5.674l11.348,0l-0,-5.674l-11.348,0Zm17.022,0l-0,5.674l5.674,0l-0,-5.674l-5.674,0Zm11.348,0l-0,5.674l11.347,0l0,-5.674l-11.347,0Zm22.695,0l0,5.674l5.674,0l0,-5.674l-5.674,0Zm102.131,0l-0,5.674l5.673,0l0,11.348l5.674,-0l0,-11.348l-5.674,0l0,-5.674l-5.673,0Zm-107.805,5.674l0,11.348l11.348,-0l0,-5.674l-5.674,0l0,-5.674l-5.674,0Zm90.783,0l-0,17.022l-17.022,-0l0,-17.022l17.022,0Zm-136.174,5.674l0,39.717l39.717,0l0,-39.717l-39.717,0Zm124.826,0l0,5.674l5.674,-0l-0,-5.674l-5.674,0Zm-90.782,5.674l-0,28.369l-28.37,0l0,-28.369l28.37,-0Zm-22.696,5.674l-0,17.022l17.022,-0l-0,-17.022l-17.022,-0Zm79.435,-0l-0,5.674l-5.674,-0l-0,-5.674l5.674,-0Zm-11.348,5.674l-0,11.348l-11.348,-0l0,-5.674l5.674,-0l-0,-5.674l5.674,-0Zm-34.044,5.674l0,5.674l5.674,-0l0,-5.674l-5.674,-0Zm17.022,-0l-5.674,-0l0,-5.674l5.674,-0l0,5.674Zm-17.022,11.347l0,5.674l5.674,0l0,-5.674l-5.674,0Zm113.478,0l0,5.674l5.674,0l0,-5.674l-5.674,0Z"/></svg>